<?xml version="1.0" encoding="UTF-8"?>
<svg data-name="Layer 1" viewBox="0 0 853.3 818" xmlns="http://www.w3.org/2000/svg" xmlns:xlink="http://www.w3.org/1999/xlink">
<defs>
<linearGradient id="a" x1="689.87" x2="776.68" y1="396.56" y2="396.56" gradientUnits="userSpaceOnUse">
<stop stop-color="#fff" offset="0"/>
<stop stop-color="#fff" stop-opacity=".3" offset="1"/>
</linearGradient>
<linearGradient id="b" x1="631.27" x2="718.08" y1="535.45" y2="535.45" xlink:href="#a"/>
</defs>
<path transform="translate(-173.35 -41)" d="m880.85 505.25c-107.72 162.99-158.38 353.75-353.75 353.75s-353.75-158.38-353.75-353.75 176.54-271.5 353.75-353.75c575.61-267.14 594.77-10.956 353.75 353.75z" fill="#3f3d56"/>
<circle cx="669.52" cy="94.222" r="66.193" fill="#e6e6e6"/>
<circle cx="663.01" cy="48.647" r="7.5959" fill="#cbcbcb"/>
<circle cx="676.03" cy="124.61" r="7.5959" fill="#cbcbcb"/>
<circle cx="705.33" cy="82.286" r="5.4256" fill="#cbcbcb"/>
<circle cx="643.48" cy="99.648" r="17.362" fill="#cbcbcb"/>
<circle cx="441.65" cy="196.22" r="10.851" fill="#0e0c38"/>
<circle cx="732.46" cy="224.44" r="10.851" fill="#0e0c38"/>
<circle cx="603.33" cy="245.05" r="6.5108" fill="#e6e6e6"/>
<circle cx="102" cy="450.14" r="6.5108" fill="#e6e6e6"/>
<circle cx="487.22" cy="624.85" r="6.5108" fill="#e6e6e6"/>
<polygon points="589.22 438.24 585.98 441.47 582.75 438.22 580.58 440.38 583.81 443.62 580.56 446.85 582.71 449.02 585.96 445.79 589.19 449.04 591.35 446.89 588.13 443.64 591.38 440.41" fill="#0e0c38"/>
<polygon points="158.43 544.59 155.18 547.82 151.95 544.56 149.79 546.72 153.01 549.97 149.76 553.19 151.92 555.36 155.16 552.13 158.39 555.38 160.56 553.23 157.33 549.98 160.58 546.75" fill="#e6e6e6"/>
<polygon points="184.47 355.78 181.22 359 178 355.75 175.83 357.9 179.06 361.16 175.81 364.38 177.96 366.55 181.21 363.32 184.44 366.57 186.6 364.42 183.38 361.17 186.62 357.94" fill="#e6e6e6"/>
<polygon points="751.99 155.03 748.74 158.26 745.52 155.01 743.35 157.16 746.58 160.41 743.33 163.64 745.48 165.8 748.73 162.57 751.96 165.82 754.12 163.67 750.9 160.42 754.14 157.19" fill="#e6e6e6"/>
<polygon points="495.9 245.09 492.65 248.32 489.43 245.07 487.26 247.22 490.49 250.47 487.24 253.7 489.39 255.87 492.64 252.64 495.87 255.89 498.03 253.74 494.81 250.49 498.06 247.26" fill="#e6e6e6"/>
<path transform="translate(-173.35 -41)" d="m691.79 446.99 84.554-98.987c1.0298-1.2056-0.55938-3.0864-1.5892-1.8809l-84.554 98.987c-1.0298 1.2056 0.55937 3.0864 1.5891 1.8809z" fill="url(#a)" opacity=".8"/>
<path transform="translate(-173.35 -41)" d="m633.2 585.89 84.554-98.987c1.0298-1.2056-0.55937-3.0864-1.5892-1.8809l-84.554 98.987c-1.0298 1.2056 0.55937 3.0864 1.5892 1.8809z" fill="url(#b)" opacity=".8"/>
<path d="m293.53 331.32h61.852v24.339a15.811 15.811 0 0 1-15.811 15.811h-30.23a15.811 15.811 0 0 1-15.811-15.811v-24.339a0 0 0 0 1-3e-5 0z" fill="#2f2e41"/>
<path transform="translate(-173.35 -41)" d="m549.35 695.69c-14.085 14.271-28.191 14.366-42.319 0.46l-10.852-95.951-7.5958 96.151c-14.118 11.427-27.276 12.965-39.064 0.42461-11.246-83.075-17.358-160.25-7.5959-219.2l-20.617-83.555 46.66-21.702c9.3963 23.243-5.4232 35.131 28.088 34.733 33.216-0.39441 30.736-12.889 29.423-34.733l42.923 16.509a15.383 15.383 0 0 1 9.1466 18.99l-21.686 68.673c8.3487 34.667-0.22337 131.1-6.5108 219.2z" fill="#e6e6e6"/>
<path transform="translate(-173.35 -41)" d="m484.24 779.24s-34.641 3.0344-39.281 1.1236q-0.43935-0.18092-0.85525-0.39352c-6.8962-3.5211-7.1064-13.382-0.66091-17.673l13.669-9.1-11.936-64.022 46.118 0.54256z" fill="#2f2e41"/>
<path transform="translate(-173.35 -41)" d="m510.28 779.79s34.641 3.0344 39.281 1.1236q0.43935-0.18092 0.85525-0.39352c6.8962-3.5211 7.1064-13.382 0.66091-17.673l-13.669-9.1 16.819-64.022h-48.288z" fill="#2f2e41"/>
<path transform="translate(-173.35 -41)" d="m428.9 551.37 6.8664 27.466a16.55 16.55 0 0 1-7.2009 17.996 16.55 16.55 0 0 1-25.31-12.203l-1.4839-13.726-5.4256-130.46a54.878 54.878 0 0 1 33.859-50.693l10.631-4.4081z" fill="#e6e6e6"/>
<path transform="translate(-173.35 -41)" d="m601.43 439.36-0.03259 0.77046-4.3839 105.3-0.84636 20.346-0.16279 4.0367-1.4866 13.727a16.55 16.55 0 1 1-32.51-5.7945l6.8689-27.464-0.15193-2.04-0.91147-12.761-10.873-151.22 10.634 4.4056a54.958 54.958 0 0 1 33.856 50.697z" fill="#e6e6e6"/>
<path transform="translate(-173.35 -41)" d="m500.58 559.19c-39.417 0-63.732-13.67-64.076-13.868l1.0846-1.8799c0.48428 0.27976 49.249 27.634 120.89 3.923l0.68244 2.06a185.9 185.9 0 0 1-58.585 9.7651z" fill="#2f2e41"/>
<path transform="translate(-173.35 -41)" d="m461.55 659.24c-8.6746-19.518-8.7186-104.35-8.716-107.95l2.1702 0.00212c-5.3e-4 0.87743 0.04026 87.97 8.5295 107.07z" fill="#2f2e41"/>
<path transform="translate(-173.35 -41)" d="m466.06 660.11c-7.7273 0-12.861-1.6457-16.209-3.533-6.0943-3.4366-7.3516-8.1194-7.4019-8.3165l2.1024-0.53832-1.0512 0.26916 1.0496-0.27446c0.044 0.16425 1.1413 4.0629 6.4631 7.0236 5.8596 3.2586 17.654 5.6905 40.559-1.2356l0.62733 2.077c-10.961 3.3147-19.506 4.528-26.139 4.528z" fill="#2f2e41"/>
<rect transform="translate(-195.69 -18.44) rotate(-2.8038)" x="448.67" y="382.63" width="2.1707" height="170.16" fill="#2f2e41"/>
<path transform="translate(-173.35 -41)" d="m535.15 659.24-1.9838-0.88166c8.4892-19.1 8.5305-106.19 8.5295-107.07l2.1702-0.00212c0.00212 3.6019-0.04132 88.436-8.716 107.95z" fill="#2f2e41"/>
<path transform="translate(-173.35 -41)" d="m530.63 660.11c-6.6337 0-15.176-1.2123-26.139-4.5281l0.62734-2.077c22.904 6.9251 34.696 4.4952 40.559 1.2356 5.3218-2.9608 6.4186-6.8594 6.462-7.0236l2.1014 0.54362c-0.05087 0.1971-1.3077 4.8799-7.402 8.3165-3.3465 1.8874-8.4828 3.533-16.208 3.533z" fill="#2f2e41"/>
<rect transform="translate(-120.26 950.16) rotate(-87.202)" x="461.86" y="466.62" width="170.16" height="2.1707" fill="#2f2e41"/>
<polygon points="355.25 367.13 339.1 391 304.38 391 292.77 367.13 297.87 367.13 306.55 386.66 335.85 386.66 349.95 367.13" fill="#0e0c38"/>
<polygon points="394.44 379.07 394.72 379.63 394.44 380.15"/>
<path transform="translate(-173.35 -41)" d="m603.6 439.36-0.03259 0.77046-20.585 5.979-12.739-25.479 13.032-23.894a54.81 54.81 0 0 1 20.324 42.624z" fill="#0e0c38"/>
<path transform="translate(-173.35 -41)" d="m395.01 439.36 0.03259 0.77046 20.585 5.979 12.739-25.479-13.032-23.894a54.81 54.81 0 0 0-20.324 42.624z" fill="#0e0c38"/>
<circle cx="324.45" cy="291.71" r="57.512" fill="#e6e6e6"/>
<circle cx="324.45" cy="299.31" r="42.32" fill="#2f2e41"/>
<polygon points="424.28 504.43 423.4 524.78 395.57 509.82 394.85 507.24 393.9 494.48" fill="#0e0c38"/>
<polygon points="226.32 504.43 227.25 524.78 256.5 509.82 257.26 507.24 258.26 494.48" fill="#0e0c38"/>
<polygon points="339.68 392.09 303.7 392.09 283.78 351.14 282.75 336.41 284.92 336.26 285.91 350.57 305.06 389.92 338.52 389.92 363.08 353.63 368.3 337.6 370.37 338.28 364.96 354.72" fill="#2f2e41"/>
</svg>
